<svg width="512" height="512" viewBox="0 0 512 512" fill="none" xmlns="http://www.w3.org/2000/svg">
<rect width="512" height="512" rx="256" fill="black"/>
<path fill-rule="evenodd" clip-rule="evenodd" d="M223.636 185.374C224.047 185.52 224.503 185.409 224.804 185.093C226.02 183.82 227.269 182.577 228.392 181.23C236.318 171.714 248.678 171.971 258.51 176.243C260.719 177.205 262.506 179.421 264.135 181.355C266.05 183.628 267.868 183.801 270.4 182.431C272.325 181.392 274.506 180.762 276.644 180.196C277.481 179.975 278.312 179.782 279.135 179.627C286.48 178.248 297.792 175.585 300.384 168.576V168.576C302.56 162.687 305.528 157.047 307.217 151.035C309.76 142.015 315.031 134.407 318.953 126.114C321.162 121.448 324.989 118.727 330.057 117.884C335.199 117.032 340.923 120.495 342.495 125.429C344.794 132.635 344.318 139.755 342.025 146.938C340.321 152.299 339.281 157.87 337.75 163.293C335.401 171.654 334.246 180.437 329.257 187.898C328.886 188.456 328.645 189.15 328.531 189.813C327.51 195.787 326.857 201.797 325.202 207.69C323.59 213.419 322.547 219.362 321.871 225.284C320.931 233.531 319.399 241.679 318.823 250.021C318.411 255.916 319.728 261.73 318.67 267.536C318.575 268.036 318.38 268.682 318.597 269.046C322.128 275.038 319.045 281.002 318.76 287.016C318.338 295.893 315.521 304.149 312.862 312.383C309.452 322.92 303.752 332.065 294.506 338.854C289.858 342.259 285.552 346.374 281.89 350.825C277.634 355.996 275.151 362.282 274.732 369.093C274.227 377.278 274.137 385.492 273.583 393.671C273.274 398.227 272.415 402.748 271.735 407.272C271.339 409.928 269.142 410.605 267.012 411.301C254.67 415.341 242.095 417.427 229.07 415.894C225.324 415.455 221.572 415.005 217.809 414.842C209.656 414.493 202.612 411.009 195.702 407.195C194.728 406.659 193.968 405.236 193.693 404.088C193.386 402.816 193.621 401.363 193.847 400.03C196.023 387.238 198.287 374.459 200.414 361.66C200.689 360.014 200.377 358.259 200.252 356.562C200.103 354.487 198.513 352.419 200.377 350.309C200.638 350.008 200.256 348.991 199.988 348.385C196.662 340.775 192.912 333.435 188.007 326.646C180.868 316.778 175.008 306.14 171.765 294.33C170.107 288.305 169.602 282.223 171.049 275.798C172.641 268.691 172.762 261.256 173.682 253.986C174.543 247.118 177.3 240.946 180.969 235.127C182.333 232.96 184.026 230.822 184.673 228.428C185.348 225.956 185.295 223.135 184.93 220.557C183.343 209.396 181.527 198.264 179.799 187.121C179.768 186.952 179.755 186.778 179.762 186.609C180.117 176.252 175.91 166.694 174.523 156.636C173.811 151.437 172.575 146.31 171.693 141.132C170.726 135.443 169.714 129.75 169.084 124.023C168.794 121.386 169.328 118.653 169.569 115.967C169.736 114.097 170.107 112.243 170.25 110.373C170.902 101.935 178.813 94.6099 187.135 95.0161C192.479 95.2774 196.398 98.4414 199.565 102.363C203.778 107.582 207.122 113.157 207.467 120.313C207.625 123.567 209.992 126.652 210.776 129.95C212.822 138.543 214.489 147.23 216.419 155.852C218.136 163.504 220.033 171.116 221.8 178.76C222.246 180.669 222.561 182.606 222.913 184.534C222.984 184.923 223.264 185.242 223.636 185.374V185.374ZM291.372 329.058C292.335 329.196 293.75 328.778 294.205 327.918C296.796 323.009 299.353 318.213 301.822 313.366C302.887 311.263 303.952 309.096 304.578 306.836C306.343 300.443 308.539 294.119 308.295 287.314C308.247 285.821 309.015 284.315 309.118 282.796C309.358 279.267 310.357 275.427 309.345 272.259C307.715 267.184 308.761 262.552 309.847 257.864C310.658 254.373 310.947 251.202 309.228 247.928C307.751 245.102 307.564 242.182 308.611 239.007C310.366 233.683 313.022 228.38 310.484 222.526C310.304 222.103 310.451 221.494 310.554 220.998C311.542 216.365 311.784 211.372 313.756 207.196C316.263 201.887 315.833 195.396 320.411 190.998C320.644 190.77 320.824 190.434 320.905 190.111C321.678 187.108 322.319 184.064 323.195 181.092C325.461 173.437 327.564 165.722 330.219 158.206C333.201 149.755 334.738 141.082 335.467 132.215C335.739 128.849 332.718 124.199 329.65 123.389C328.834 123.171 327.538 123.503 326.901 124.074C325.773 125.079 324.793 126.362 324.084 127.703C322.093 131.476 320.136 135.285 318.4 139.178C315.275 146.178 311.938 153.116 309.382 160.325C306.13 169.498 303.561 178.911 300.696 188.225C300.448 189.044 300.43 190.061 299.91 190.647C298.103 192.678 298.303 195.109 298.456 197.443C298.933 204.779 297.49 211.721 294.684 218.46C291.465 226.204 288.251 233.95 285.196 241.761C281.47 251.288 276.036 259.491 267.927 265.922C265.117 268.151 262.265 269.117 258.914 268.304C256.27 267.659 253.675 266.726 251.15 265.7C249.664 265.096 248.182 264.521 246.596 264.099C244.371 263.507 243.062 266.153 244.726 267.744V267.744C249.358 272.173 252.944 277.333 256.031 282.923V282.923C258.878 288.087 253.16 289.386 250.342 284.206C249.531 282.715 248.689 281.242 247.802 279.796C245.32 275.746 240.483 271.308 236.371 268.527C233.454 266.553 230.821 268.435 229.872 271.827C229.726 272.348 229.53 272.851 229.254 273.324C228.495 274.623 226.787 274.69 225.423 274.055V274.055C223.94 273.364 222.959 271.877 222.933 270.241C222.837 264.251 222.759 258.288 222.591 252.328C222.51 249.586 223.647 247.955 226.058 246.648C228.109 245.539 229.911 243.879 231.591 242.228C232.992 240.854 234.079 239.145 235.297 237.578C236.757 235.702 238.584 234.087 240.17 232.013C241.208 230.656 239.576 229.27 238.358 230.468V230.468C235.594 233.204 232.283 234.758 228.589 235.883C222.687 237.679 221.409 237.422 217.804 232.416V232.416C214.778 228.239 209.539 225.995 204.712 227.813C202.083 228.804 199.619 230.025 197.336 231.652C194.864 233.415 192.055 235.244 190.573 237.745C188.079 241.96 185.762 246.567 184.717 251.303C182.814 259.963 181.905 268.844 180.541 277.627C179.959 281.373 179.819 285.147 181.116 288.713C183.161 294.31 184.724 300.082 188.101 305.183C191.012 309.581 193.45 314.31 195.889 318.998C198.241 323.524 199.98 328.394 202.619 332.73C206.259 338.733 207.886 345.206 207.941 352.019C207.974 356.061 207.142 360.159 206.323 364.153C204.369 373.68 202.298 383.187 200.061 392.653V392.653C198.562 399.006 200.819 405.805 206.767 408.495C207.15 408.669 207.534 408.839 207.919 409.006C210.859 410.28 213.863 411.083 217.26 410.93C222.712 410.684 228.196 410.984 233.657 411.323C243.353 411.926 252.76 410.714 261.957 407.553C266.017 406.158 266.652 405.691 266.698 401.433C266.724 399.233 266.252 397.022 265.951 394.829C265.787 393.645 265.271 392.47 265.321 391.311C265.683 382.798 266.107 374.29 266.636 365.791C266.718 364.539 267.389 363.309 267.888 362.111V362.111C270.123 356.763 265.685 350.728 259.983 351.767C259.352 351.882 258.726 352.005 258.102 352.14C249.51 353.992 241.294 353.629 233.414 350.843C231.681 350.23 232.248 348.415 234.065 348.686V348.686C237.095 349.134 240.139 349.694 243.186 349.791C252.154 350.078 260.732 347.529 269.423 345.849C274.703 344.826 279.584 343.008 282.959 338.34C284.982 335.535 287.267 332.911 289.691 329.963C290.212 329.329 290.56 328.943 291.372 329.058V329.058ZM239.341 210.484C247.607 212.642 259.992 211.035 260.579 202.513C260.766 199.789 260.744 197.051 260.513 194.27C259.795 185.724 254.968 181.07 246.939 179.03C241.296 177.598 236.538 178.472 232.548 183.037C229.171 186.901 225.537 190.546 221.947 194.217V194.217C220.683 195.511 218.42 194.396 217.904 192.662C217.161 190.166 216.469 187.801 215.38 185.639C211.371 177.701 211.86 168.664 208.83 160.52C208.771 160.366 208.793 160.182 208.769 160.013C207.599 152.791 207.091 145.379 205.082 138.403C202.786 130.428 202.191 122.001 198.39 114.406C195.924 109.49 194.042 104.304 189.28 101.013C187.385 99.6995 185.413 98.7093 183.099 100.06C179.869 101.944 177.32 104.592 176.308 108.133C174.582 114.178 174.701 120.539 176.769 126.324C179.257 133.289 180.86 140.357 181.971 147.592C183.044 154.666 184.006 161.758 184.946 168.853C185.442 172.561 185.402 176.391 186.311 179.989C188.995 190.599 190.233 201.41 191.553 212.229C191.82 214.424 192.38 216.613 193.065 218.726C193.786 220.954 195.074 221.477 196.967 220.142C202.97 215.909 210.082 214.378 216.805 211.967C219.018 211.172 220.27 210.11 221.12 208.129C222.064 205.925 223.056 203.742 224.084 201.575C224.459 200.783 224.912 200.155 225.464 199.705C227.383 198.137 229.156 201.187 228.432 203.556V203.556C227.625 206.197 229.461 208.815 232.2 209.168C234.654 209.485 237.046 209.885 239.341 210.484ZM263.807 256.755C263.559 257.045 263.569 257.476 263.839 257.745V257.745C264.063 257.968 264.408 258.023 264.685 257.87C268.228 255.912 271.052 253.187 273.056 249.531C275.874 244.382 278.89 239.334 281.591 234.12C286.9 223.848 289.329 212.725 290.62 201.34C290.896 198.852 290.284 196.259 290.031 193.717C289.627 189.591 286.992 187.088 283.839 184.769C279.505 181.568 275.707 184.049 271.781 185.498C268.184 186.829 268.173 189.817 268 193.06C267.67 199.184 267.225 205.354 266.129 211.379C264.493 220.317 260.941 228.668 257.182 236.917C257.058 237.186 256.946 237.461 256.842 237.74C255.828 240.46 258.24 243.086 261.136 243.282V243.282C264.293 243.506 265.85 245.719 267.038 248.319C268.189 250.838 267.605 252.932 265.613 254.77C264.959 255.378 264.391 256.074 263.807 256.755ZM228.619 232.199C237.048 228.875 235.763 217.871 227.056 220.376V220.376C223.214 221.481 217.825 225.725 220.213 228.93C220.698 229.581 221.2 230.223 221.596 230.898C222.786 232.932 224.661 233.555 226.886 232.824C227.475 232.63 228.053 232.422 228.619 232.199ZM258.392 245.219C256.033 244.81 253.894 246.4 252.74 248.498C252.452 249.021 252.164 249.544 251.875 250.07C250.191 253.132 251.422 258.767 254.837 258.026V258.026C257.667 257.416 260.262 255.593 262.833 254.078C263.354 253.769 263.472 252.563 263.545 251.749C263.866 248.16 261.963 245.837 258.392 245.219ZM245.165 248.613C246.455 248.046 243.78 246.296 242.552 246.987C238.428 249.307 234.94 251.458 232.107 254.603V254.603C230.17 256.755 233.525 258.914 236.067 257.527C237.142 256.941 238.115 256.105 239.023 254.985C240.857 252.724 242.189 249.874 245.165 248.613V248.613ZM259.896 261.607C259.738 261.766 259.698 262.012 259.807 262.208V262.208C259.938 262.444 260.235 262.531 260.472 262.401C260.729 262.259 260.987 262.117 261.245 261.974C262.097 261.504 262.037 260.09 261.164 260.52C261.132 260.536 261.101 260.553 261.07 260.571C260.628 260.833 260.269 261.232 259.896 261.607Z" fill="black"/>
<path fill-rule="evenodd" clip-rule="evenodd" d="M294.21 327.905C293.752 328.773 292.33 329.194 291.358 329.056V329.056C290.554 328.943 290.22 329.327 289.704 329.954C287.276 332.908 284.987 335.535 282.961 338.345C279.586 343.013 274.705 344.831 269.424 345.854C260.734 347.533 252.155 350.083 243.188 349.795C240.138 349.698 237.097 349.139 234.067 348.691V348.691C232.25 348.418 231.683 350.234 233.415 350.847C241.296 353.633 249.512 353.997 258.103 352.144C258.727 352.01 259.354 351.886 259.984 351.771C265.687 350.732 270.125 356.767 267.89 362.115V362.115C267.389 363.314 266.719 364.543 266.638 365.795C266.111 374.295 265.685 382.803 265.323 391.316C265.274 392.477 265.788 393.652 265.953 394.833C266.254 397.026 266.726 399.238 266.699 401.438C266.653 405.695 266.019 406.163 261.959 407.557C252.763 410.719 243.355 411.931 233.659 411.327C228.2 410.989 222.715 410.688 217.261 410.934C213.865 411.088 210.861 410.284 207.921 409.011C207.536 408.843 207.152 408.673 206.769 408.5C200.821 405.809 198.567 399.012 200.063 392.657V392.657C202.298 383.191 204.37 373.684 206.325 364.157C207.144 360.163 207.976 356.066 207.943 352.024C207.89 345.208 206.261 338.738 202.621 332.735C199.981 328.398 198.242 323.528 195.891 319.003C193.454 314.315 191.014 309.585 188.103 305.187C184.726 300.087 183.162 294.314 181.118 288.718C179.82 285.152 179.963 281.377 180.543 277.632C181.906 268.847 182.815 259.967 184.719 251.307C185.764 246.569 188.081 241.965 190.575 237.749C192.057 235.246 194.865 233.419 197.338 231.656C199.621 230.029 202.084 228.808 204.714 227.817C209.541 225.999 214.78 228.243 217.806 232.42V232.42C221.413 237.426 222.691 237.681 228.591 235.887C232.286 234.763 235.598 233.208 238.36 230.473V230.473C239.576 229.273 241.209 230.66 240.172 232.017C238.586 234.091 236.759 235.707 235.299 237.582C234.08 239.15 232.993 240.858 231.593 242.233C229.911 243.884 228.108 245.542 226.059 246.653C223.649 247.961 222.511 249.59 222.592 252.333C222.761 258.293 222.839 264.256 222.935 270.246C222.961 271.882 223.941 273.368 225.424 274.059V274.059C226.787 274.695 228.497 274.627 229.254 273.327C229.531 272.853 229.727 272.35 229.873 271.828C230.82 268.437 233.453 266.557 236.37 268.529C240.482 271.31 245.321 275.748 247.803 279.801C248.691 281.246 249.532 282.719 250.343 284.21C253.162 289.391 258.883 288.092 256.033 282.928V282.928C252.946 277.337 249.36 272.177 244.727 267.749V267.749C243.064 266.158 244.374 263.512 246.598 264.104C248.184 264.526 249.666 265.101 251.152 265.705C253.677 266.73 256.272 267.663 258.916 268.309C262.266 269.121 265.119 268.155 267.929 265.926C276.038 259.493 281.472 251.292 285.198 241.765C288.254 233.955 291.467 226.209 294.686 218.464C297.49 211.726 298.934 204.783 298.458 197.447C298.304 195.113 298.104 192.683 299.911 190.652C300.43 190.068 300.447 189.051 300.698 188.23C303.563 178.916 306.132 169.503 309.384 160.329C311.939 153.121 315.279 146.18 318.401 139.182C320.138 135.29 322.094 131.482 324.086 127.708C324.795 126.366 325.777 125.084 326.903 124.078C327.54 123.51 328.835 123.176 329.652 123.393C332.719 124.203 335.741 128.854 335.468 132.22C334.739 141.086 333.205 149.759 330.221 158.21C327.566 165.728 325.463 173.444 323.197 181.096C322.321 184.069 321.679 187.112 320.907 190.116C320.825 190.439 320.645 190.777 320.413 191.003C315.835 195.401 316.263 201.891 313.757 207.2C311.788 211.377 311.544 216.37 310.556 221.003C310.453 221.499 310.306 222.107 310.486 222.531C313.022 228.387 310.365 233.687 308.613 239.012C307.566 242.187 307.752 245.107 309.23 247.933C310.949 251.206 310.659 254.377 309.849 257.868C308.762 262.556 307.715 267.189 309.346 272.263C310.359 275.431 309.359 279.272 309.12 282.8C309.017 284.32 308.248 285.826 308.297 287.319C308.538 294.123 306.343 300.447 304.579 306.841C303.954 309.1 302.889 311.267 301.824 313.371C299.355 318.209 296.798 323 294.21 327.905ZM311.201 193.515C311.709 193.536 312.124 193.115 312.094 192.608V192.608C312.065 192.12 311.636 191.755 311.149 191.804C310.491 191.87 309.832 191.936 309.175 192.003C308.8 192.04 308.519 192.365 308.531 192.741V192.741C308.543 193.115 308.84 193.416 309.213 193.431C309.876 193.46 310.539 193.487 311.201 193.515Z" fill="white"/>
<path fill-rule="evenodd" clip-rule="evenodd" d="M260.579 202.52C259.991 211.041 247.612 212.643 239.349 210.486C237.053 209.886 234.659 209.486 232.203 209.17C229.464 208.818 227.627 206.2 228.434 203.559V203.559C229.158 201.19 227.387 198.142 225.467 199.708C224.915 200.159 224.461 200.787 224.086 201.579C223.058 203.746 222.066 205.929 221.121 208.133C220.272 210.114 219.02 211.177 216.807 211.972C210.082 214.382 202.972 215.913 196.969 220.146C195.076 221.481 193.787 220.958 193.067 218.73C192.38 216.618 191.822 214.428 191.554 212.233C190.235 201.415 188.996 190.601 186.313 179.994C185.404 176.395 185.444 172.568 184.948 168.857C184.006 161.763 183.046 154.671 181.972 147.596C180.861 140.361 179.258 133.293 176.771 126.329C174.702 120.543 174.584 114.182 176.31 108.137C177.322 104.596 179.871 101.948 183.101 100.064C185.417 98.7135 187.387 99.7016 189.282 101.017C194.044 104.308 195.926 109.494 198.392 114.411C202.19 122.005 202.787 130.432 205.084 138.407C207.093 145.383 207.6 152.796 208.771 160.017C208.797 160.186 208.773 160.371 208.832 160.524C211.864 168.668 211.373 177.706 215.382 185.643C216.471 187.807 217.163 190.171 217.906 192.667C218.421 194.401 220.685 195.516 221.949 194.222V194.222C225.539 190.548 229.173 186.903 232.55 183.041C236.537 178.476 241.295 177.602 246.941 179.034C254.968 181.072 259.794 185.729 260.514 194.274C260.746 197.056 260.767 199.795 260.579 202.52ZM207.169 196.706C208.734 196.605 209.764 194.675 208.255 194.249C207.709 194.095 207.143 194.078 206.552 194.192C204.735 194.545 205.322 196.825 207.169 196.706V196.706ZM195.339 155.648C193.796 156.021 194.374 157.814 195.925 157.476C195.958 157.469 195.991 157.461 196.024 157.454C197.431 157.124 196.744 155.309 195.339 155.648V155.648Z" fill="white"/>
<path fill-rule="evenodd" clip-rule="evenodd" d="M263.837 257.744C263.568 257.475 263.558 257.045 263.806 256.757C264.389 256.076 264.957 255.381 265.611 254.772C267.602 252.934 268.189 250.837 267.036 248.321C265.85 245.719 264.291 243.508 261.134 243.284V243.284C258.237 243.088 255.825 240.463 256.839 237.742C256.943 237.463 257.056 237.188 257.179 236.919C260.938 228.67 264.491 220.32 266.127 211.381C267.222 205.356 267.668 199.186 267.997 193.062C268.171 189.817 268.182 186.831 271.778 185.5C275.704 184.051 279.505 181.57 283.837 184.771C286.992 187.09 289.627 189.593 290.029 193.719C290.279 196.261 290.894 198.855 290.617 201.342C289.326 212.727 286.898 223.85 281.589 234.122C278.89 239.336 275.871 244.384 273.054 249.533C271.05 253.189 268.227 255.914 264.685 257.872C264.407 258.025 264.061 257.968 263.837 257.744V257.744Z" fill="white"/>
<path fill-rule="evenodd" clip-rule="evenodd" d="M227.057 220.375C235.765 217.87 237.049 228.875 228.619 232.198C228.052 232.422 227.473 232.63 226.884 232.824C224.659 233.555 222.784 232.932 221.594 230.898C221.199 230.223 220.697 229.582 220.213 228.932C217.823 225.725 223.214 221.48 227.057 220.375V220.375Z" fill="white"/>
<path fill-rule="evenodd" clip-rule="evenodd" d="M252.739 248.499C253.893 246.401 256.033 244.81 258.392 245.219C261.962 245.838 263.864 248.161 263.544 251.751C263.472 252.565 263.353 253.771 262.833 254.08C260.262 255.595 257.666 257.42 254.836 258.028V258.028C251.421 258.77 250.189 253.134 251.874 250.072C252.163 249.546 252.451 249.023 252.739 248.499Z" fill="white"/>
<path fill-rule="evenodd" clip-rule="evenodd" d="M242.551 246.987C243.78 246.296 246.455 248.046 245.164 248.613V248.613C242.189 249.876 240.856 252.724 239.023 254.985C238.115 256.105 237.141 256.941 236.067 257.527C233.525 258.914 230.169 256.755 232.106 254.603V254.603C234.937 251.458 238.427 249.306 242.551 246.987Z" fill="white"/>
<path fill-rule="evenodd" clip-rule="evenodd" d="M259.809 262.212C259.699 262.014 259.738 261.765 259.898 261.604C260.27 261.229 260.63 260.831 261.072 260.571C261.1 260.555 261.129 260.539 261.158 260.524C262.031 260.086 262.095 261.507 261.239 261.979C260.983 262.12 260.728 262.261 260.472 262.402C260.236 262.532 259.94 262.448 259.809 262.212V262.212Z" fill="white"/>
<path fill-rule="evenodd" clip-rule="evenodd" d="M312.095 192.608C312.125 193.115 311.709 193.536 311.202 193.515C310.539 193.487 309.877 193.46 309.214 193.431C308.84 193.415 308.542 193.115 308.53 192.741V192.741C308.518 192.364 308.8 192.04 309.176 192.003C309.833 191.936 310.491 191.87 311.15 191.804C311.636 191.755 312.066 192.12 312.095 192.608V192.608Z" fill="black"/>
<path fill-rule="evenodd" clip-rule="evenodd" d="M208.258 194.25C209.766 194.677 208.736 196.605 207.172 196.705V196.705C205.326 196.824 204.739 194.543 206.555 194.192C207.146 194.078 207.712 194.096 208.258 194.25Z" fill="black"/>
<path fill-rule="evenodd" clip-rule="evenodd" d="M195.925 157.478C194.374 157.816 193.796 156.02 195.34 155.648V155.648C196.745 155.308 197.433 157.126 196.025 157.455C195.992 157.463 195.959 157.471 195.925 157.478Z" fill="black"/>
</svg>
