<svg width="169" height="146" viewBox="0 0 169 146" fill="none" xmlns="http://www.w3.org/2000/svg">
<path fill-rule="evenodd" clip-rule="evenodd" d="M59.951 138.429C59.664 138.91 59.377 139.392 59.117 139.827C56.956 139.277 54.926 138.76 52.581 138.162C53.323 137.376 53.855 136.811 54.469 136.161C54.142 135.724 53.835 135.316 53.589 134.987C57.346 136.385 61.135 137.796 65.001 139.235C65.308 138.409 64.808 138.167 64.378 137.97C62.754 137.229 61.116 136.525 59.484 135.805C55.645 134.11 51.8 132.428 47.974 130.707C47.322 130.416 46.736 130.064 46.059 130.583C46.949 132.774 49.299 132.747 51.128 133.944C50.286 134.081 49.685 134.178 49.102 134.272C49.081 134.621 49.066 134.893 49.039 135.394C47.957 134.772 47.084 134.27 46.216 133.772C46.73 132.498 46.712 132.29 45.665 132.159C44.45 132.007 43.708 131.328 42.91 130.655C42.977 130.521 43.044 130.388 43.111 130.255C43.671 130.427 44.233 130.599 44.809 130.775C45.421 130.236 45.388 129.721 44.835 129.312C42.803 127.806 40.741 126.345 38.699 124.853C36.53 123.27 34.716 121.334 33.232 119.107C32.101 117.412 31.061 115.657 29.972 113.934C29.803 113.666 29.628 113.373 29.382 113.185C27.069 111.423 26.128 108.809 25.032 106.283C24.768 105.673 24.628 104.819 23.65 105C23.023 105.116 22.997 105.764 23.634 106.966C24.05 107.75 24.562 108.484 25.034 109.239C25.237 109.562 25.5 109.855 25.654 110.199C26.217 111.467 26.753 112.748 27.279 114.032C27.39 114.301 27.419 114.603 27.542 115.137C26.009 114.606 25.615 113.387 25.172 112.278C23.642 112.851 24.878 114.318 23.959 114.956C22.372 114.293 23.094 113.022 23.296 111.827C22.694 111.827 22.217 111.827 21.956 111.827C21.228 110.971 20.659 110.245 20.028 109.573C19.466 108.974 19.075 108.398 18.882 107.512C18.665 106.507 17.815 105.654 17.339 104.687C16.984 103.966 16.743 103.18 16.533 102.402C16.306 101.561 16.269 100.661 15.977 99.848C15.627 98.88 14.808 98.098 15.074 96.893C15.144 96.571 14.778 95.92 14.457 95.785C13.059 95.19 12.796 93.806 12.519 92.688C11.621 89.06 10.891 85.383 10.299 81.693C10.135 80.666 10.686 79.529 10.886 78.438C10.96 78.032 11.106 77.56 10.975 77.21C10.539 76.056 9.99003 74.943 9.43103 73.687C10.8 73.265 11.045 72.398 10.559 71.182C10.44 70.882 10.631 70.453 10.699 70.088C10.904 69.005 11.185 67.929 11.288 66.836C11.322 66.485 10.891 66.092 10.674 65.718C10.443 65.32 10.214 64.922 10.278 64.319C10.449 64.561 10.619 64.803 10.882 65.176C11.166 64.792 11.536 64.52 11.55 64.234C11.615 62.85 11.937 61.434 11.176 60.113C11.025 59.852 10.904 59.483 10.965 59.209C11.336 57.554 11.763 55.913 12.172 54.267C12.311 54.246 12.448 54.226 12.586 54.204C12.993 54.815 13.401 55.425 13.806 56.038C15.147 58.064 16.769 59.711 19.283 60.204C20.947 60.529 22.192 61.426 22.992 62.95C23.525 63.966 24.085 64.974 24.718 65.929C25.595 67.256 26.49 68.58 27.494 69.81C28.299 70.798 28.814 71.77 28.647 73.104C28.267 76.143 28.665 79.175 28.778 82.213C28.867 84.609 29.108 86.988 29.496 89.331C29.842 91.417 30.529 93.459 31.221 95.467C31.756 97.017 31.445 98.62 31.777 100.169C31.855 100.531 31.838 100.914 31.865 101.28C33.197 101.744 32.758 100.655 33.011 100.106C33.97 100.552 33.564 101.452 33.647 102.116C33.745 102.891 32.861 103.881 34.307 104.331C34.48 104.386 34.272 105.373 34.416 105.876C34.715 106.923 35.062 106.985 36.187 106.347C37.103 107.34 36.252 108.42 36.062 109.63C36.928 109.493 37.496 109.405 38.211 109.291C38.211 110.092 38.211 110.753 38.211 111.49C38.78 111.554 39.263 111.609 39.91 111.682C39.622 112.107 39.398 112.438 39.096 112.887C40.726 114.78 42.367 116.684 44.049 118.638C44.446 118.464 44.822 118.299 45.552 117.977C45.057 118.582 44.805 118.889 44.56 119.186C46.546 121.274 47.361 121.591 49.59 121.097C49.984 122.29 49.506 124.019 51.559 124.434C52.378 123.704 53.308 123.882 54.148 124.824C54.436 125.147 54.756 125.44 55.051 125.758C55.425 126.16 57.212 127.39 57.781 127.666C58.231 127.885 58.695 128.104 59.086 128.41C59.483 128.72 59.797 129.135 60.241 129.602C60.514 129.383 60.774 129.175 61.13 128.89C61.291 129.244 61.439 129.567 61.646 130.02C62.772 129.688 63.667 130.05 64.141 131.204C64.535 131.034 65.002 130.655 65.24 130.767C65.609 130.94 65.819 131.449 66.205 131.96C66.609 131.987 67.224 132.029 68.056 132.086C67.514 129.101 66.834 126.269 66.527 123.398C66.226 120.57 66.305 117.701 66.207 114.554C65.481 114.721 64.814 114.793 64.212 115.028C61.638 116.034 59.126 116.097 56.632 114.768C55.845 114.348 54.986 114.067 54.191 113.661C51.877 112.481 50.051 110.825 48.556 108.637C47.062 106.446 46.228 104.175 46.011 101.557C45.854 99.654 44.99 98.059 43.302 96.936C41.073 95.453 39.067 93.657 37.448 91.54C35.439 88.912 34.165 85.921 34.172 82.531C34.173 81.946 34.489 81.362 34.677 80.719C36.522 80.987 37.882 82.861 39.824 81.784C39.818 80.321 38.909 79.359 38.163 78.365C35.6 74.943 32.983 71.562 30.381 68.169C27.975 65.031 25.595 61.871 23.125 58.783C22.644 58.18 21.832 57.806 21.116 57.435C20.328 57.026 19.445 56.801 18.662 56.386C18.17 56.125 17.571 55.747 17.389 55.279C16.227 52.296 13.796 49.782 14.031 46.27C14.058 45.863 13.841 45.402 13.627 45.027C12.036 42.227 9.98303 39.805 7.58703 37.656C6.98303 37.113 6.35303 36.513 5.98203 35.809C4.16703 32.37 2.50903 28.846 0.650029 25.43C-1.05197 22.302 1.26203 19.5 3.84803 19.023C5.25203 18.764 6.72303 18.431 7.84803 19.984C8.15003 20.401 9.22203 20.259 10.094 20.398C10.115 20.637 10.237 21.012 10.167 21.346C9.66403 23.717 9.90703 24.119 12.191 24.492C12.139 25.272 11.854 26.14 12.099 26.816C12.339 27.479 13.116 27.949 13.867 28.719C13.867 28.93 13.693 29.592 13.9 30.093C14.482 31.492 14.692 32.915 14.533 34.401C14.395 35.677 14.766 36.769 15.501 37.81C16.603 39.372 17.6 41.006 18.69 42.576C19.665 43.979 20.762 45.06 22.755 44.904C24.607 44.76 26.159 45.833 27.709 46.742C28.968 47.482 30.234 48.22 31.54 48.872C34.564 50.383 37.558 51.976 40.671 53.282C43.475 54.46 46.388 55.415 49.314 56.262C52.733 57.254 56.223 57.999 59.67 58.892C63.254 59.822 66.91 59.763 70.524 59.443C72.451 59.273 74.154 59.631 75.954 60.1C78.29 60.708 80.683 61.104 83.063 61.53C83.527 61.612 84.041 61.415 84.553 61.343C84.828 60.089 84.545 59.192 83.776 58.266C83.015 57.35 82.476 56.231 81.948 55.149C81.511 54.253 81.673 53.267 82.523 52.756C83.773 52.007 83.933 50.888 84.003 49.647C84.125 47.462 84.564 45.386 85.608 43.403C86.241 42.198 87.221 41.615 88.331 41.194C89.817 40.628 91.351 40.15 92.904 39.803C95.836 39.146 97.939 40.206 99.504 42.737C101.088 45.301 101.15 48.207 101.574 51.029C101.68 51.738 101.695 52.32 102.296 52.879C102.698 53.253 102.982 54.053 102.898 54.597C102.647 56.212 102.516 57.896 101.296 59.206C100.057 60.535 100.067 60.842 101.145 62.774C101.904 62.562 102.681 62.299 103.478 62.141C104.222 61.993 105.041 61.741 105.734 61.911C107.681 62.387 109.522 61.877 111.406 61.623C112.478 61.479 113.576 61.431 114.656 61.475C119.481 61.672 124.016 60.346 128.475 58.769C129.82 58.294 130.918 57.156 132.23 56.539C134.455 55.493 136.766 54.631 139.032 53.667C141.25 52.724 143.476 51.797 145.655 50.768C146.497 50.371 147.194 49.677 147.997 49.18C149.93 47.981 151.933 46.887 153.812 45.612C154.846 44.911 156.009 44.09 156.542 43.035C157.335 41.466 158.669 40.739 159.989 39.907C161.226 39.127 162.499 38.392 163.809 37.747C164.418 37.447 165.153 37.273 165.83 37.271C167.735 37.266 168.979 38.433 168.636 40.302C167.925 44.172 166.477 47.692 162.433 49.31C160.296 50.165 158.235 51.108 156.396 52.54C155.402 53.314 154.207 53.829 153.125 54.494C152.043 55.157 150.98 55.852 149.921 56.552C148.272 57.642 146.667 58.803 144.985 59.84C141.898 61.742 138.821 63.672 135.644 65.415C131.404 67.743 127.07 69.902 122.778 72.135C121.599 72.749 120.751 73.552 120.478 74.98C120.128 76.805 119.066 78.318 117.533 79.324C114.302 81.445 112.065 84.463 109.858 87.51C108.254 89.724 107.573 92.322 107.028 94.968C106.67 96.712 106.243 98.448 105.728 100.153C104.471 104.314 103.341 108.517 102.858 112.832C102.199 118.71 102.562 124.515 104.601 130.172C105.33 132.194 105.588 134.393 105.98 136.526C106.209 137.772 105.497 138.961 104.308 139.433C101.939 140.37 99.607 141.479 97.156 142.104C94.649 142.744 92.018 142.886 89.441 143.247C88.184 142.365 86.906 143.215 85.673 143.229C85.19 142.807 84.741 142.415 84.081 141.839C84.049 142.495 84.033 142.841 84.009 143.337C82.674 143.152 81.363 143.237 80.022 143.396C78.616 143.563 77.487 143.828 76.538 144.829C75.545 143.933 74.486 143.557 73.133 143.403C70.368 143.09 67.651 142.37 64.914 141.82C63.818 141.598 62.714 141.403 61.625 141.15C61.206 141.053 60.815 140.828 60.313 140.619C60.655 140.148 60.934 139.765 61.304 139.256C60.762 138.958 60.334 138.722 59.905 138.489C58.764 137.055 57.797 136.879 56.865 137.937C57.956 138.796 57.956 138.796 59.951 138.429ZM29.661 57.073C30 57.495 30.333 57.923 30.68 58.34C32.555 60.593 34.521 62.778 36.291 65.112C38.679 68.261 40.881 71.549 43.241 74.72C43.952 75.678 44.857 76.523 45.792 77.27C46.491 77.831 47.411 77.771 48.092 77.15C48.694 76.601 48.51 75.853 48.198 75.195C47.87 74.504 47.424 73.864 47.134 73.16C46.757 72.242 47.21 71.467 48.193 71.372C48.748 71.319 49.342 71.418 49.888 71.564C51.202 71.918 52.328 72.597 53.353 73.522C53.94 74.051 54.85 74.769 55.44 74.635C56.586 74.373 57.916 74.067 58.683 72.856C57.514 71.411 56.172 70.385 54.551 69.703C49.79 67.702 45.054 65.642 40.271 63.694C38.411 62.936 36.756 61.963 35.263 60.607C33.633 59.132 31.844 57.834 29.661 57.073ZM59.075 78.246C59.713 80.053 60.297 81.646 60.834 83.256C61.115 84.099 61.198 85.025 61.58 85.813C62.01 86.705 62.535 87.643 63.265 88.278C64.837 89.647 66.887 89.846 68.88 90.425C68.904 89.96 68.97 89.757 68.915 89.594C67.645 85.857 66.259 82.168 64.083 78.841C62.474 76.381 62.454 76.39 59.955 77.701C59.623 77.876 59.314 78.097 59.075 78.246ZM69.132 141.69C69.84 141.456 70.344 141.288 70.838 141.125C71.567 142.404 71.567 142.377 72.685 142.371C73.986 142.364 75.348 141.957 76.488 143.065C76.68 143.252 77.36 143.157 77.671 142.963C78.349 142.539 78.934 141.966 79.559 141.455C78.099 140.62 67.26 138.436 65.519 138.736C65.873 139.122 66.214 139.662 66.348 139.615C67.429 139.232 67.83 140.008 68.329 140.65C68.6 140.999 68.871 141.351 69.132 141.69ZM100.571 138.994C102.72 139.068 103.113 138.918 104.112 137.679C102.933 138.118 101.752 138.556 100.571 138.994ZM61.863 134.581C62.892 134.047 62.924 133.407 62.593 132.753C62.515 132.598 62.014 132.655 61.6 132.6C61.696 133.319 61.765 133.843 61.863 134.581ZM37.406 120.762C37.716 122.075 37.716 122.075 38.86 121.879C38.623 121.159 38.285 120.669 37.406 120.762ZM48.787 126.238C48.23 126.743 48.041 127.272 48.647 127.801C48.781 127.917 49.332 127.817 49.444 127.65C49.941 126.917 49.455 126.55 48.787 126.238ZM72.865 136.826C73.276 137.463 73.695 137.864 74.264 137.334C74.352 137.252 74.28 136.999 74.282 136.826C73.809 136.826 73.337 136.826 72.865 136.826ZM37.282 115.943C37.472 115.162 37.485 114.581 36.613 114.211C36.178 115.066 36.191 115.637 37.282 115.943ZM68.417 137.28C68.334 137.453 68.25 137.627 68.166 137.8C68.516 137.956 68.866 138.113 69.217 138.269C69.285 138.113 69.433 137.833 69.411 137.819C69.093 137.619 68.752 137.453 68.417 137.28ZM41.304 123.256C41.081 123.496 40.857 123.65 40.881 123.73C40.94 123.932 41.112 124.101 41.238 124.283C41.368 124.169 41.608 124.051 41.606 123.941C41.6 123.746 41.446 123.555 41.304 123.256ZM54.895 131.794C54.621 132.027 54.454 132.17 54.287 132.311C54.503 132.547 54.718 132.782 54.934 133.019C55.087 132.871 55.388 132.696 55.366 132.581C55.32 132.338 55.107 132.124 54.895 131.794ZM81.678 142.222C80.988 141.62 80.547 141.728 80.229 142.74C80.881 142.507 81.28 142.364 81.678 142.222ZM77.714 138.366C77.43 138.046 77.302 137.779 77.122 137.737C76.972 137.702 76.76 137.931 76.576 138.044C76.695 138.232 76.774 138.51 76.942 138.581C77.094 138.645 77.34 138.482 77.714 138.366ZM66.099 77.578C66.013 77.636 65.925 77.693 65.839 77.75C65.933 77.943 65.997 78.161 66.129 78.325C66.281 78.514 66.491 78.654 66.677 78.815C66.752 78.738 66.826 78.662 66.901 78.584C66.634 78.249 66.367 77.915 66.099 77.578ZM44.003 125.999C43.805 125.832 43.669 125.633 43.53 125.629C43.411 125.627 43.179 125.859 43.191 125.968C43.205 126.109 43.398 126.314 43.538 126.335C43.658 126.352 43.81 126.148 44.003 125.999Z" fill="black"/>
<path fill-rule="evenodd" clip-rule="evenodd" d="M75.339 1.68701C76.044 2.95201 76.044 2.95201 77.944 3.37901C76.776 4.17801 75.532 3.91501 74.394 4.10501C74.04 4.16401 73.614 3.99001 73.311 4.12501C70.256 5.47801 67.058 6.37401 63.832 7.19401C63.551 7.26501 63.31 7.49901 63.056 7.66901C62.619 7.96101 62.369 8.96201 61.621 8.03701C60.862 8.68301 60.103 9.33101 59.345 9.97801C59.372 10.096 59.4 10.214 59.427 10.332C59.8 10.332 60.219 10.444 60.534 10.311C61.528 9.89201 62.505 9.42201 63.448 8.89801C65.931 7.51701 68.646 6.82401 71.376 6.19001C73.911 5.60201 76.452 5.01201 79.018 4.59501C81.399 4.20801 83.815 4.02101 86.219 3.79701C87.675 3.66201 89.141 3.64301 90.599 3.52301C91.012 3.48901 91.412 3.28601 91.93 3.12701C90.518 2.42701 90.524 2.47601 85.586 3.00701C83.523 3.22801 81.433 3.19601 79.281 3.08801C79.449 3.00501 79.614 2.85701 79.786 2.84701C82.653 2.69201 85.526 2.61801 88.389 2.39701C93.374 2.01501 98.313 2.44301 103.248 3.08301C109.919 3.94701 116.392 5.56901 122.587 8.20001C125.28 9.34401 127.899 10.664 130.551 11.901C130.782 12.01 131.012 12.145 131.257 12.195C135.967 13.158 139.372 16.262 142.773 19.312C145.928 22.14 148.306 25.649 150.866 28.995C152.688 31.376 154.125 33.966 155.349 36.698C155.763 37.621 155.622 38.269 154.965 38.926C152.93 40.958 151.083 43.233 148.812 44.952C146.977 46.342 144.637 47.064 142.36 48.161C141.4 46.772 140.421 45.601 139.71 44.283C137.536 40.268 134.145 37.517 130.437 35.07C128.045 33.49 125.715 31.798 123.224 30.389C120.84 29.042 118.313 27.937 115.802 26.833C111.532 24.955 107.116 23.446 102.59 22.353C100.069 21.744 97.444 21.538 94.855 21.236C89.948 20.666 85.036 20.96 80.146 21.429C77.869 21.648 75.613 22.162 73.367 22.632C71.191 23.089 69.016 23.58 66.884 24.209C64.821 24.817 62.726 25.399 60.899 26.621C60.688 26.763 60.468 26.946 60.23 26.987C58.35 27.301 56.97 28.589 55.426 29.513C53.366 30.746 51.54 32.311 50.129 34.301C49.986 34.502 49.792 34.723 49.572 34.807C47.699 35.524 46.651 37.197 45.213 38.417C42.246 40.934 40.011 43.982 37.939 47.196C37.496 47.884 37.023 47.973 36.342 47.596C32.698 45.575 28.838 44.074 24.889 42.771C22.653 42.032 21.453 40.19 20.393 38.28C20.178 37.893 20.271 37.104 20.538 36.717C22.712 33.567 24.925 30.442 27.209 27.369C27.831 26.535 28.923 26.031 29.467 25.165C30.907 22.871 33.099 21.541 35.247 20.084C35.862 19.666 36.438 19.429 36.968 19.709C37.973 20.24 38.67 19.78 39.373 19.233C40.829 18.104 42.194 16.845 43.713 15.81C48.821 12.329 53.872 8.70601 59.632 6.35401C64.702 4.28401 69.853 2.38001 75.339 1.68701ZM54.798 10.684C52.256 11.001 50.576 13.019 48.25 13.817C48.32 14.327 48.369 14.697 48.419 15.069C46.641 15.055 45.501 16.233 43.773 17.308C44.679 17.53 45.102 17.634 45.665 17.771C45.39 18.168 45.226 18.651 44.893 18.84C43.63 19.557 42.957 20.798 42.004 21.779C40.502 23.327 39.517 25.453 37.331 26.311C37.173 26.374 36.992 26.841 37.056 26.911C37.235 27.112 37.527 27.288 37.79 27.313C38.002 27.334 38.278 27.165 38.455 27.003C39.525 26.029 40.584 25.044 41.625 24.042C43.267 22.463 44.833 20.802 46.541 19.3C48.094 17.932 49.473 16.302 51.557 15.62C51.934 15.497 52.195 15.026 52.738 14.489C49.949 14.452 48.812 17.178 46.17 17.145C47.004 16.338 47.687 15.679 48.367 15.017C50.246 13.98 52.125 12.944 54.04 11.888C54.34 12.37 54.619 12.819 55.007 13.442C55.516 12.998 55.901 12.663 56.338 12.281C55.136 11.546 55.136 11.546 54.76 10.641C56.01 10.967 56.821 10.399 57.518 9.42501C56.688 8.70601 56.067 8.79401 55.533 9.58401C55.287 9.95101 55.042 10.318 54.798 10.684ZM59.005 18.437C61.812 19.214 62.856 18.789 63.331 16.92C64.204 16.879 64.308 16.802 65.225 16.11C65.566 15.852 66.046 15.521 66.399 15.583C67.741 15.822 68.425 14.936 69.188 14.115C65.5 14.863 62.035 16.123 59.005 18.437ZM55.379 16.339C54.114 14.93 50.931 16.379 49.662 18.741C52.153 19.373 53.341 17.08 55.379 16.339ZM62.328 21.402C60.525 21.157 59.721 21.359 59.623 22.142C59.545 22.77 59.644 23.635 60.032 24.055C60.702 24.778 61.492 24.316 62.259 23.697C61.922 23.285 61.632 22.935 61.376 22.622C61.671 22.243 61.92 21.924 62.328 21.402ZM55.63 14.325C55.946 14.538 56.181 14.822 56.345 14.785C57.458 14.535 58.557 14.22 59.771 13.895C58.164 12.212 57.035 12.342 55.63 14.325ZM55.741 20.576C56.364 21.891 56.507 22.058 57.004 21.837C57.942 21.417 57.677 20.559 57.819 19.839C56.735 19.342 56.159 19.764 55.741 20.576ZM69.527 20.044C68.344 19.666 68.344 19.666 67.987 20.668C68.615 20.415 69.071 20.229 69.527 20.044ZM71.955 13.946C71.651 13.671 71.49 13.408 71.309 13.396C71.159 13.385 70.857 13.667 70.859 13.816C70.861 13.994 71.088 14.258 71.271 14.315C71.409 14.356 71.629 14.132 71.955 13.946ZM49.837 21.559C49.991 21.729 50.144 21.898 50.298 22.067C50.56 21.819 50.822 21.573 51.082 21.325C50.944 21.178 50.807 21.032 50.668 20.886C50.392 21.11 50.114 21.335 49.837 21.559ZM53.115 26.708C52.699 26.544 52.492 26.381 52.361 26.43C52.176 26.498 52.012 26.703 51.918 26.89C51.89 26.946 52.137 27.248 52.236 27.238C52.415 27.218 52.578 27.047 53.115 26.708Z" fill="black"/>
<path fill-rule="evenodd" clip-rule="evenodd" d="M120.302 140.769C120.516 141.292 120.635 141.583 120.75 141.866C120.667 141.971 120.594 142.147 120.517 142.149C118.647 142.184 117.299 143.538 115.632 144.072C114.01 144.591 112.384 145.106 110.739 145.541C110.36 145.642 109.892 145.403 109.373 145.302C109.475 144.59 109.562 143.985 109.658 143.309C108.149 143.309 106.672 143.309 105.194 143.309C105.134 143.18 105.074 143.051 105.014 142.923C105.182 142.853 105.347 142.77 105.52 142.71C107.317 142.073 109.104 141.406 110.916 140.813C114.371 139.683 117.284 137.616 120.229 135.583C121.539 134.678 122.896 133.832 124.283 133.05C129.363 130.187 133.957 126.674 138.162 122.657C140.642 120.289 142.389 117.437 143.487 114.153C144.883 109.981 146.369 105.836 147.94 101.728C148.994 98.969 148.987 96.099 149.214 93.242C149.45 90.257 149.761 87.278 149.924 84.289C150.155 80.021 149.967 75.772 149.171 71.553C148.652 68.799 148.391 65.995 147.323 63.365C147.077 62.761 147.21 62.258 147.828 61.907C152.107 59.483 156.378 57.046 160.659 54.624C160.81 54.539 161.025 54.564 161.164 54.543C162.553 56.675 161.997 59.156 162.565 61.417C162.75 62.148 162.91 62.896 162.972 63.644C163.135 65.602 163.298 67.563 163.351 69.527C163.458 73.603 163.279 77.67 162.591 81.698C162.359 83.054 162.005 84.39 161.763 85.746C161.62 86.544 161.677 87.385 161.487 88.168C161.044 89.997 160.562 91.82 159.99 93.613C159.339 95.657 158.566 97.663 157.87 99.694C157.792 99.92 157.88 100.199 157.868 100.453C157.809 101.663 157.571 102.765 156.885 103.854C156.123 105.065 155.763 106.521 155.137 107.826C153.941 110.319 152.852 112.845 151.255 115.158C149.202 118.132 147.49 121.34 145.59 124.422C145.261 124.956 144.73 125.367 144.043 126.103C144.022 126.194 144.012 126.791 143.758 127.254C143.025 128.59 142.345 130.007 141.357 131.144C140.334 132.321 138.991 133.223 137.76 134.208C136.922 134.879 136.113 135.807 135.149 136.044C133.66 136.41 132.965 137.827 131.554 138.226C130.156 138.622 128.852 139.381 127.444 139.692C126.889 139.815 126.589 139.906 126.144 140.296C125.078 141.229 123.671 141.585 122.273 141.622C121.712 141.635 121.137 141.148 120.302 140.769ZM110.937 143.221C111.109 143.363 111.28 143.504 111.452 143.646C111.613 143.422 111.775 143.2 111.936 142.977C111.798 142.846 111.659 142.715 111.522 142.585C111.327 142.797 111.131 143.009 110.937 143.221Z" fill="black"/>
<path fill-rule="evenodd" clip-rule="evenodd" d="M36.048 125.467C37.361 125.519 40.845 128.19 41.728 129.745C39.484 128.491 37.559 127.274 36.048 125.467Z" fill="black"/>
<path fill-rule="evenodd" clip-rule="evenodd" d="M83.516 1.105C81.47 1.889 79.757 1.545 77.786 1.427C78.911 1.266 79.769 1.105 80.636 1.03C81.456 0.959001 82.297 0.644002 83.516 1.105Z" fill="black"/>
<path fill-rule="evenodd" clip-rule="evenodd" d="M85.047 0.556C85.795 0.556 86.544 0.556 87.292 0.556C86.534 1.189 85.787 1.085 85.047 0.556Z" fill="black"/>
<path fill-rule="evenodd" clip-rule="evenodd" d="M44.767 133.997C44.484 133.997 44.203 133.997 43.92 133.997C43.911 133.907 43.903 133.816 43.895 133.726C44.158 133.679 44.421 133.632 44.684 133.585C44.711 133.722 44.739 133.858 44.767 133.997Z" fill="black"/>
</svg>
